<?xml version="1.0" encoding="UTF-8" standalone="no"?>
<!-- Created with Inkscape (http://www.inkscape.org/) -->

<svg
   xmlns:dc="http://purl.org/dc/elements/1.1/"
   xmlns:cc="http://creativecommons.org/ns#"
   xmlns:rdf="http://www.w3.org/1999/02/22-rdf-syntax-ns#"
   xmlns:svg="http://www.w3.org/2000/svg"
   xmlns="http://www.w3.org/2000/svg"
   xmlns:sodipodi="http://sodipodi.sourceforge.net/DTD/sodipodi-0.dtd"
   xmlns:inkscape="http://www.inkscape.org/namespaces/inkscape"
   width="210mm"
   height="297mm"
   viewBox="0 0 210 297"
   version="1.1"
   id="svg8"
   inkscape:version="0.92.4 (5da689c313, 2019-01-14)"
   sodipodi:docname="par2.svg">
  <defs
     id="defs2" />
  <sodipodi:namedview
     id="base"
     pagecolor="#ffffff"
     bordercolor="#666666"
     borderopacity="1.0"
     inkscape:pageopacity="0.0"
     inkscape:pageshadow="2"
     inkscape:zoom="0.94927246"
     inkscape:cx="701.88281"
     inkscape:cy="569.71534"
     inkscape:document-units="mm"
     inkscape:current-layer="layer1"
     showgrid="false"
     inkscape:window-width="2560"
     inkscape:window-height="1020"
     inkscape:window-x="0"
     inkscape:window-y="31"
     inkscape:window-maximized="1" />
  <metadata
     id="metadata5">
    <rdf:RDF>
      <cc:Work
         rdf:about="">
        <dc:format>image/svg+xml</dc:format>
        <dc:type
           rdf:resource="http://purl.org/dc/dcmitype/StillImage" />
        <dc:title></dc:title>
      </cc:Work>
    </rdf:RDF>
  </metadata>
  <g
     inkscape:label="1. réteg"
     inkscape:groupmode="layer"
     id="layer1">
    <path
       style="fill:#000000;stroke-width:0.26458335"
       d="M -8.3195356,142.78571 V 43.362984 l 111.1290556,0 112.8014,0 v 99.422726 l 0,100.81633 H 102.80952 -8.3195356 Z M 105.01347,227.9523 c 16.48651,-9.10494 33.39594,-19.81274 49.97553,-35.29406 15.36081,-14.34327 25.94621,-26.16003 32.50159,-37.08364 13.78656,-22.97333 17.62746,-55.21535 4.20853,-74.018171 -1.81589,-2.54445 -9.70966,-10.966482 -12.29272,-13.078042 -7.86194,-6.42684 -17.69244,-10.26797 -28.58524,-11.16929 -14.31962,-1.18488 -29.22116,4.24964 -39.29014,14.32891 -3.63781,3.64153 -5.36421,5.97468 -7.33377,9.91127 l -1.29615,2.59065 -1.12271,-2.33979 c -4.008095,-8.353093 -12.016593,-15.64658 -22.168803,-20.18955 -13.34079,-5.96982 -28.43203,-5.92794 -42.20022,0.11711 -9.04502,3.9713 -17.381042,10.694936 -22.666012,19.673106 C 6.2910345,95.75973 2.4949922,121.67772 9.2536325,138.66549 c 5.2125005,13.10154 13.2258155,25.77438 29.5336655,42.39357 16.01594,16.3217 33.984608,31.48315 50.060908,41.52964 2.90399,1.81478 12.293914,7.20966 12.593384,7.2354 0.0869,0.007 1.69423,-0.83484 3.57188,-1.8718 z m -3.88132,-17.20897 c -14.490756,-8.12122 -25.942966,-16.29316 -39.457966,-28.15599 -2.6001,-2.28224 -8.555678,-7.96885 -13.23462,-12.63691 l -8.50717,-8.48738 -0.19196,-1.81584 c -0.291708,-2.7594 -0.806867,-5.09284 -0.306017,-6.93963 2.34464,-8.64589 4.32696,-12.17716 10.67009,-19.00746 2.56127,-2.75798 4.02168,-5.18339 4.02168,-6.67908 0,-0.53503 0.25161,-1.16249 0.66146,-1.64958 0.3638,-0.43235 0.66146,-0.91904 0.66146,-1.08153 0,-0.16249 0.90183,-1.23937 2.00407,-2.39307 2.23953,-2.3441 2.48521,-2.93104 3.0404,-7.26386 0.3378,-2.63626 0.26919,-3.20223 -0.94713,-7.81236 -0.64268,-2.43589 -0.71239,-3.08812 -0.59386,-5.55625 0.33852,-7.048847 4.33077,-13.583857 10.01952,-16.401207 3.05375,-1.51238 5.56584,-2.13163 9.36346,-2.30819 3.52752,-0.164 5.77961,0.18087 8.58755,1.31505 6.0192,2.43126 11.1239,8.21243 11.1239,12.59802 0,1.14845 -0.0701,1.31163 -0.59531,1.38623 -0.65219,0.0926 -0.64534,-0.0418 -0.40845,8.022037 0.0706,2.40257 0.0197,2.73911 -0.55295,3.66032 -0.5427,0.87297 -0.6078,1.2236 -0.46668,2.51355 0.0902,0.82448 0.40285,2.27296 0.69479,3.21884 0.58905,1.90847 0.67448,3.21348 0.26096,3.98615 -0.21819,0.4077 -0.56066,0.51177 -1.68411,0.51177 -1.54919,0 -2.62866,0.60642 -2.95586,1.66055 -0.10045,0.32362 -0.43216,0.94237 -0.73711,1.37499 -0.30496,0.43262 -0.51951,1.05344 -0.47676,1.37958 0.0587,0.44826 -0.0891,0.63486 -0.60563,0.7645 -0.96405,0.24197 -1.67638,1.26536 -1.88653,2.71035 -0.27805,1.91188 -0.74304,2.57515 -2.35987,3.36619 -1.32072,0.64617 -1.67611,0.70437 -3.6424,0.59645 -1.54336,-0.0847 -2.50685,-0.28881 -3.30336,-0.6998 -0.61846,-0.31913 -1.12448,-0.53011 -1.12448,-0.46884 0,0.0613 0.28886,0.73486 0.6419,1.49687 0.35305,0.76201 0.85144,2.17282 1.10756,3.13513 0.35949,1.35078 0.8384,2.2322 2.10068,3.86632 3.09318,4.00433 5.42965,8.10216 6.97647,12.23573 0.42229,1.12847 1.43419,3.57118 2.24867,5.42823 3.93496,8.97192 8.20366,24.96561 8.54324,32.00923 0.10489,2.17572 0.259743,3.19779 0.516813,3.41114 0.20187,0.16754 0.40251,0.25789 0.44586,0.20077 0.0433,-0.0571 0.38974,-0.63963 0.76976,-1.29447 1.72261,-2.96834 6.8787,-7.93861 12.565,-12.11219 l 3.50448,-2.57219 2.01299,-3.96875 2.01298,-3.96875 -0.17708,-2.38125 c -0.38602,-5.19128 -1.42361,-10.73199 -2.16307,-11.55082 -0.55853,-0.61848 -2.88025,-1.83598 -4.46145,-2.33957 -4.94573,-1.57513 -6.49235,-4.41453 -3.91271,-7.18321 0.55546,-0.59617 0.6068,-0.78673 0.34417,-1.27745 -0.39529,-0.73862 -0.16788,-1.32916 0.51185,-1.32916 0.4776,0 0.49964,-0.0706 0.21626,-0.69254 -0.2767,-0.60727 -0.24342,-0.75094 0.27025,-1.16689 0.81129,-0.65694 0.73666,-1.08464 -0.35844,-2.05417 -0.72901,-0.64542 -0.92501,-1.00329 -0.85989,-1.57004 0.0897,-0.78098 0.0723,-0.77345 4.16475,-1.80211 1.77213,-0.44544 2.23336,-0.91072 2.76606,-2.79033 0.32239,-1.13751 0.79226,-1.88487 2.04371,-3.2506 1.4525,-1.58514 2.00799,-1.9613 5.23099,-3.54215 l 3.60591,-1.76868 3.3073,-0.005 c 3.93924,-0.006 5.5204,0.39573 7.77513,1.97517 l 1.53903,1.07809 2.00188,2.12091 c 1.31644,-0.63727 0.26762,1.38976 1.74514,1.91107 0.78046,0.27536 0.82992,1.69176 1.45704,1.5119 0.70509,-0.16431 2.05612,-0.69981 0,0 2.48855,0.40463 1.68601,2.17583 2.2386,4.3704 0.42308,1.68018 0.20814,4.22498 -0.415,4.91355 -0.48506,0.53598 -0.47831,0.56018 0.41304,1.47982 0.84361,0.87039 0.90616,1.05402 0.90616,2.66035 0,1.68326 -0.0259,1.74791 -1.05833,2.6455 -2.18969,1.90365 -2.41658,2.17019 -2.72577,3.20217 -0.17432,0.58183 -0.31694,1.77361 -0.31694,2.64841 1.37985,5.25775 -0.77968,2.86413 -0.64905,4.70251 0.0946,0.98542 -0.37964,1.24786 -1.5302,0.84677 -0.62693,-0.21855 -1.03945,-0.18682 -1.86489,0.14346 -1.37277,0.54927 -2.75783,0.53873 -3.71774,-0.0283 -0.97493,-0.5759 -1.31326,-0.27291 -1.49492,1.33879 -0.26578,2.35802 0.1015,3.45848 2.16322,6.48147 2.34114,3.43269 3.06118,4.82398 3.92349,7.58109 0.98135,3.13773 2.17822,0.93935 2.20038,4.86776 0.0185,3.27485 -0.0191,3.5519 -0.53767,3.96875 -0.30663,0.24647 -2.27117,1.88683 -4.36562,3.64526 -10.25608,8.61059 -20.98455,16.07404 -31.45706,21.88362 -2.25558,1.25127 -4.27964,2.3291 -4.49792,2.39518 -0.21828,0.0661 -1.46844,-0.4804 -2.77813,-1.21441 z"
       id="path75"
       inkscape:connector-curvature="0"
       sodipodi:nodetypes="cccccccccsssscssccssssssscsccscscsscscscscscsccccccsccccscccscccccccccsccccscccsccccccscccsccccccccsccccsccsssccccccc" />
  </g>
</svg>
